# xmcd
#
# Track frame offsets:
#	150
#	15097
#	30809
#	47796
#	68165
#	83759
#	98306
#	114607
#	132648
#	151885
#	169847
#	186984
#	205396
#	221633
#	237945
#	254407
#	270419
#	290331
#	305668
#	323630
#
# Disc length: 4571 seconds
#
# Revision: 1
# Processed by: cddbd v1.5.2PL0 Copyright (c) Steve Scherf et al.
# Submitted via: audiograbber 1.83.01
#
DISCID=0e11d914
DTITLE=Various Artist - PromoOnly May07 Main Radio
DYEAR=2007
DGENRE=Hip-Hop
TTITLE0=Beyonce f Shakira - Beautiful Liar
TTITLE1=Lloyd - Get It Shawty (Main)
TTITLE2=Clyde Carson - (Two) 2 Step (Main Radio Version)
TTITLE3=Pitbull f KenY and Frankie J - Tell Me
TTITLE4=Pretty Ricky - Push It Baby (PO Clean)
TTITLE5=Christina Aguilera - Candyman (squeaky clean edit)
TTITLE6=Avril Lavigne - Girlfriend
TTITLE7=Gym Class Heroes - Cupids Chokehold
TTITLE8=Jim Jones f Juelz Santana - Emotionless (Super Clean)
TTITLE9=Bobby Valentine f Timbaland - Anonymous
TTITLE10=Yung Berg - Sexy Lady
TTITLE11=Ludacris - Slap
TTITLE12=Kelly Rowland f Eve - Like This (Album Version)
TTITLE13=Fantasia - When I See U (Album Version)
TTITLE14=Lil Mama - Lip Gloss
TTITLE15=Noel Gourdin - The River
TTITLE16=DJ Khaled f Akon, RickRoss, Fat Joe, Lil' Wayne, Baby - We Talkin Over
TTITLE17=Mims - Like This (Album Version)
TTITLE18=Lil Rob - Do It
TTITLE19=Omarion f Usher - Ice Box (Remix)
EXTD=
EXTT0=
EXTT1=
EXTT2=
EXTT3=
EXTT4=
EXTT5=
EXTT6=
EXTT7=
EXTT8=
EXTT9=
EXTT10=
EXTT11=
EXTT12=
EXTT13=
EXTT14=
EXTT15=
EXTT16=
EXTT17=
EXTT18=
EXTT19=
PLAYORDER=
